<svg width="27" height="28" viewBox="0 0 27 28" fill="none" xmlns="http://www.w3.org/2000/svg">
<path d="M19.75 1.46924H7.25C3.79822 1.46924 1 4.30287 1 7.79834V20.4565C1 23.952 3.79822 26.7856 7.25 26.7856H19.75C23.2018 26.7856 26 23.952 26 20.4565V7.79834C26 4.30287 23.2018 1.46924 19.75 1.46924Z" stroke="black" stroke-width="2" stroke-linecap="round" stroke-linejoin="round"/>
<path d="M18.9405 13.3105C19.1102 14.4693 18.9147 15.6527 18.3819 16.6925C17.8491 17.7323 17.0061 18.5755 15.9727 19.1022C14.9394 19.6288 13.7684 19.8121 12.6262 19.626C11.4841 19.4399 10.4289 18.8939 9.61092 18.0656C8.7929 17.2372 8.25365 16.1688 8.06986 15.0122C7.88607 13.8557 8.0671 12.6699 8.58721 11.6235C9.10732 10.5772 9.94002 9.7235 10.9669 9.18398C11.9937 8.64445 13.1624 8.44652 14.3068 8.61835C15.474 8.79363 16.5547 9.3444 17.3891 10.1893C18.2235 11.0343 18.7674 12.1285 18.9405 13.3105Z" stroke="black" stroke-width="2" stroke-linecap="round" stroke-linejoin="round"/>
</svg>
