<svg width="439" height="102" viewBox="0 0 439 102" fill="none" xmlns="http://www.w3.org/2000/svg">
<path d="M4.46204 26.9438H11.3027L28.002 63.4944L44.7013 26.9438H51.542V73.8225H44.9025V40.491L29.6786 73.8225H26.3254L11.0344 40.491V73.8225H4.46204V26.9438ZM77.9678 74.8285C72.0214 74.8285 67.3491 73.3531 63.9512 70.4022C60.5979 67.4066 58.9213 63.2038 58.9213 57.7939C58.9213 52.5181 60.419 48.3376 63.4146 45.2526C66.4549 42.1676 70.7695 40.6251 76.3583 40.6251C80.0692 40.6251 83.2213 41.3405 85.8145 42.7712C88.4077 44.1572 90.3526 46.1021 91.6492 48.6059C92.9905 51.065 93.6611 53.8817 93.6611 57.0562V60.4094H65.3595C65.5831 63.4497 66.8573 65.7299 69.1823 67.2501C71.5519 68.7255 74.7487 69.4633 78.7726 69.4633C80.8293 69.4633 82.9083 69.2844 85.0097 68.9267C87.1111 68.5243 88.9666 68.0102 90.5761 67.3842V72.8165C89.1454 73.3978 87.2452 73.8672 84.8756 74.2249C82.5506 74.6273 80.2481 74.8285 77.9678 74.8285ZM87.2899 55.6478C87.2005 52.6075 86.1945 50.2602 84.272 48.6059C82.3942 46.9069 79.7115 46.0574 76.2241 46.0574C72.8262 46.0574 70.1882 46.9293 68.3104 48.673C66.4326 50.4167 65.449 52.7416 65.3595 55.6478H87.2899ZM116.624 74.8285C113.405 74.8285 110.499 74.1355 107.906 72.7495C105.357 71.3187 103.345 69.3291 101.87 66.7806C100.439 64.1874 99.7238 61.1919 99.7238 57.7939C99.7238 54.4406 100.439 51.4674 101.87 48.8742C103.345 46.281 105.357 44.269 107.906 42.8383C110.499 41.3628 113.405 40.6251 116.624 40.6251C122.437 40.6251 126.841 42.3912 129.836 45.9233V24.2612H136.61V73.8225H130.037V69.1279C128.249 71.0952 126.282 72.5483 124.136 73.4872C122.034 74.3814 119.53 74.8285 116.624 74.8285ZM118.167 69.4633C120.939 69.4633 123.353 68.7479 125.41 67.3172C127.511 65.8417 128.987 63.8745 129.836 61.4154V54.1723C129.076 51.7133 127.623 49.746 125.477 48.2706C123.375 46.7951 120.939 46.0574 118.167 46.0574C115.976 46.0574 113.986 46.5492 112.198 47.5329C110.454 48.5165 109.068 49.9025 108.04 51.6909C107.056 53.4793 106.564 55.5136 106.564 57.7939C106.564 60.0741 107.056 62.1084 108.04 63.8968C109.068 65.6852 110.454 67.0713 112.198 68.0549C113.986 68.9938 115.976 69.4633 118.167 69.4633Z" fill="black"/>
<path d="M148.232 41.6311H154.804V47.3987C156.145 45.4315 158.023 43.9784 160.437 43.0395C162.896 42.1006 165.736 41.6311 168.955 41.6311V46.9293C165.512 46.9293 162.561 47.4882 160.102 48.6059C157.643 49.7237 155.944 51.4897 155.005 53.9041V73.8225H148.232V41.6311ZM190.693 74.8285C184.747 74.8285 180.075 73.3531 176.677 70.4022C173.323 67.4066 171.647 63.2038 171.647 57.7939C171.647 52.5181 173.145 48.3376 176.14 45.2526C179.18 42.1676 183.495 40.6251 189.084 40.6251C192.795 40.6251 195.947 41.3405 198.54 42.7712C201.133 44.1572 203.078 46.1021 204.375 48.6059C205.716 51.065 206.387 53.8817 206.387 57.0562V60.4094H178.085C178.309 63.4497 179.583 65.7299 181.908 67.2501C184.277 68.7255 187.474 69.4633 191.498 69.4633C193.555 69.4633 195.634 69.2844 197.735 68.9267C199.837 68.5243 201.692 68.0102 203.302 67.3842V72.8165C201.871 73.3978 199.971 73.8672 197.601 74.2249C195.276 74.6273 192.974 74.8285 190.693 74.8285ZM200.015 55.6478C199.926 52.6075 198.92 50.2602 196.998 48.6059C195.12 46.9069 192.437 46.0574 188.95 46.0574C185.552 46.0574 182.914 46.9293 181.036 48.673C179.158 50.4167 178.174 52.7416 178.085 55.6478H200.015ZM213.791 41.6311H220.229V46.2586C221.749 44.3808 223.47 42.9724 225.393 42.0335C227.315 41.0946 229.305 40.6251 231.362 40.6251C233.955 40.6251 236.012 41.0722 237.532 41.9664C239.052 42.8159 240.17 44.1349 240.885 45.9233C242.316 44.1796 244.059 42.8606 246.116 41.9664C248.217 41.0722 250.319 40.6251 252.42 40.6251C256.355 40.6251 259.194 41.6311 260.938 43.6431C262.681 45.6103 263.553 48.5388 263.553 52.4286V73.8225H256.981V53.3005C256.981 50.6626 256.489 48.8071 255.505 47.7341C254.522 46.6163 252.845 46.0574 250.475 46.0574C247.077 46.0574 244.305 47.5329 242.159 50.4837C242.249 51.1544 242.293 52.2498 242.293 53.7699V73.8225H235.721V53.3005C235.721 50.6626 235.274 48.8071 234.38 47.7341C233.485 46.6163 231.876 46.0574 229.551 46.0574C226.153 46.0574 223.113 47.98 220.43 51.8251V73.8225H213.791V41.6311ZM275.906 35.327C274.788 35.327 273.849 34.9469 273.089 34.1868C272.329 33.4268 271.949 32.4879 271.949 31.3701C271.949 30.2523 272.329 29.3134 273.089 28.5533C273.849 27.7933 274.788 27.4132 275.906 27.4132C277.068 27.4132 278.029 27.7933 278.79 28.5533C279.594 29.3134 279.997 30.2523 279.997 31.3701C279.997 32.4879 279.594 33.4268 278.79 34.1868C278.029 34.9469 277.068 35.327 275.906 35.327ZM272.485 41.6311H279.393V73.8225H272.485V41.6311ZM288.715 41.6311H295.288V46.2586C296.808 44.3361 298.663 42.9277 300.854 42.0335C303.09 41.0946 305.415 40.6251 307.829 40.6251C312.121 40.6251 315.318 41.7652 317.419 44.0455C319.521 46.3257 320.571 49.3883 320.571 53.2334V73.8225H313.798V53.9041C313.798 48.673 311.294 46.0574 306.286 46.0574C304.14 46.0574 302.128 46.5716 300.25 47.5999C298.417 48.5836 296.83 50.1037 295.489 52.1604V73.8225H288.715V41.6311ZM344.487 74.8285C341.268 74.8285 338.362 74.1355 335.769 72.7495C333.22 71.3187 331.209 69.3291 329.733 66.7806C328.302 64.1874 327.587 61.1919 327.587 57.7939C327.587 54.4406 328.302 51.4674 329.733 48.8742C331.209 46.281 333.22 44.269 335.769 42.8383C338.362 41.3628 341.268 40.6251 344.487 40.6251C350.3 40.6251 354.704 42.3912 357.699 45.9233V24.2612H364.473V73.8225H357.901V69.1279C356.112 71.0952 354.145 72.5483 351.999 73.4872C349.897 74.3814 347.394 74.8285 344.487 74.8285ZM346.03 69.4633C348.802 69.4633 351.216 68.7479 353.273 67.3172C355.374 65.8417 356.85 63.8745 357.699 61.4154V54.1723C356.939 51.7133 355.486 49.746 353.34 48.2706C351.239 46.7951 348.802 46.0574 346.03 46.0574C343.839 46.0574 341.85 46.5492 340.061 47.5329C338.317 48.5165 336.931 49.9025 335.903 51.6909C334.919 53.4793 334.428 55.5136 334.428 57.7939C334.428 60.0741 334.919 62.1084 335.903 63.8968C336.931 65.6852 338.317 67.0713 340.061 68.0549C341.85 68.9938 343.839 69.4633 346.03 69.4633ZM390.907 74.8285C384.961 74.8285 380.289 73.3531 376.891 70.4022C373.537 67.4066 371.861 63.2038 371.861 57.7939C371.861 52.5181 373.358 48.3376 376.354 45.2526C379.394 42.1676 383.709 40.6251 389.298 40.6251C393.009 40.6251 396.161 41.3405 398.754 42.7712C401.347 44.1572 403.292 46.1021 404.589 48.6059C405.93 51.065 406.601 53.8817 406.601 57.0562V60.4094H378.299C378.522 63.4497 379.797 65.7299 382.122 67.2501C384.491 68.7255 387.688 69.4633 391.712 69.4633C393.769 69.4633 395.848 69.2844 397.949 68.9267C400.05 68.5243 401.906 68.0102 403.516 67.3842V72.8165C402.085 73.3978 400.185 73.8672 397.815 74.2249C395.49 74.6273 393.187 74.8285 390.907 74.8285ZM400.229 55.6478C400.14 52.6075 399.134 50.2602 397.211 48.6059C395.334 46.9069 392.651 46.0574 389.164 46.0574C385.766 46.0574 383.128 46.9293 381.25 48.673C379.372 50.4167 378.388 52.7416 378.299 55.6478H400.229ZM414.004 41.6311H420.577V47.3987C421.918 45.4315 423.796 43.9784 426.21 43.0395C428.669 42.1006 431.509 41.6311 434.728 41.6311V46.9293C431.285 46.9293 428.334 47.4882 425.875 48.6059C423.416 49.7237 421.717 51.4897 420.778 53.9041V73.8225H414.004V41.6311Z" fill="#00ACAC"/>
</svg>
