<svg width="290" height="54" viewBox="0 0 290 54" fill="none" xmlns="http://www.w3.org/2000/svg">
<path d="M57.34 13.836H61.012L69.976 33.456L78.94 13.836H82.612V39H79.048V21.108L70.876 39H69.076L60.868 21.108V39H57.34V13.836ZM96.7971 39.54C93.6051 39.54 91.0971 38.748 89.2731 37.164C87.4731 35.556 86.5731 33.3 86.5731 30.396C86.5731 27.564 87.3771 25.32 88.9851 23.664C90.6171 22.008 92.9331 21.18 95.9331 21.18C97.9251 21.18 99.6171 21.564 101.009 22.332C102.401 23.076 103.445 24.12 104.141 25.464C104.861 26.784 105.221 28.296 105.221 30V31.8H90.0291C90.1491 33.432 90.8331 34.656 92.0811 35.472C93.3531 36.264 95.0691 36.66 97.2291 36.66C98.3331 36.66 99.4491 36.564 100.577 36.372C101.705 36.156 102.701 35.88 103.565 35.544V38.46C102.797 38.772 101.777 39.024 100.505 39.216C99.2571 39.432 98.0211 39.54 96.7971 39.54ZM101.801 29.244C101.753 27.612 101.213 26.352 100.181 25.464C99.1731 24.552 97.7331 24.096 95.8611 24.096C94.0371 24.096 92.6211 24.564 91.6131 25.5C90.6051 26.436 90.0771 27.684 90.0291 29.244H101.801ZM117.547 39.54C115.819 39.54 114.259 39.168 112.867 38.424C111.499 37.656 110.419 36.588 109.627 35.22C108.859 33.828 108.475 32.22 108.475 30.396C108.475 28.596 108.859 27 109.627 25.608C110.419 24.216 111.499 23.136 112.867 22.368C114.259 21.576 115.819 21.18 117.547 21.18C120.667 21.18 123.031 22.128 124.639 24.024V12.396H128.275V39H124.747V36.48C123.787 37.536 122.731 38.316 121.579 38.82C120.451 39.3 119.107 39.54 117.547 39.54ZM118.375 36.66C119.863 36.66 121.159 36.276 122.263 35.508C123.391 34.716 124.183 33.66 124.639 32.34V28.452C124.231 27.132 123.451 26.076 122.299 25.284C121.171 24.492 119.863 24.096 118.375 24.096C117.199 24.096 116.131 24.36 115.171 24.888C114.235 25.416 113.491 26.16 112.939 27.12C112.411 28.08 112.147 29.172 112.147 30.396C112.147 31.62 112.411 32.712 112.939 33.672C113.491 34.632 114.235 35.376 115.171 35.904C116.131 36.408 117.199 36.66 118.375 36.66Z" fill="black"/>
<path d="M134.34 21.72H137.868V24.816C138.588 23.76 139.596 22.98 140.892 22.476C142.212 21.972 143.736 21.72 145.464 21.72V24.564C143.616 24.564 142.032 24.864 140.712 25.464C139.392 26.064 138.48 27.012 137.976 28.308V39H134.34V21.72ZM157.133 39.54C153.941 39.54 151.433 38.748 149.609 37.164C147.809 35.556 146.909 33.3 146.909 30.396C146.909 27.564 147.713 25.32 149.321 23.664C150.953 22.008 153.269 21.18 156.269 21.18C158.261 21.18 159.953 21.564 161.345 22.332C162.737 23.076 163.781 24.12 164.477 25.464C165.197 26.784 165.557 28.296 165.557 30V31.8H150.365C150.485 33.432 151.169 34.656 152.417 35.472C153.689 36.264 155.405 36.66 157.565 36.66C158.669 36.66 159.785 36.564 160.913 36.372C162.041 36.156 163.037 35.88 163.901 35.544V38.46C163.133 38.772 162.113 39.024 160.841 39.216C159.593 39.432 158.357 39.54 157.133 39.54ZM162.137 29.244C162.089 27.612 161.549 26.352 160.517 25.464C159.509 24.552 158.069 24.096 156.197 24.096C154.373 24.096 152.957 24.564 151.949 25.5C150.941 26.436 150.413 27.684 150.365 29.244H162.137ZM169.531 21.72H172.987V24.204C173.803 23.196 174.727 22.44 175.759 21.936C176.791 21.432 177.859 21.18 178.963 21.18C180.355 21.18 181.459 21.42 182.275 21.9C183.091 22.356 183.691 23.064 184.075 24.024C184.843 23.088 185.779 22.38 186.883 21.9C188.011 21.42 189.139 21.18 190.267 21.18C192.379 21.18 193.903 21.72 194.839 22.8C195.775 23.856 196.243 25.428 196.243 27.516V39H192.715V27.984C192.715 26.568 192.451 25.572 191.923 24.996C191.395 24.396 190.495 24.096 189.223 24.096C187.399 24.096 185.911 24.888 184.759 26.472C184.807 26.832 184.831 27.42 184.831 28.236V39H181.303V27.984C181.303 26.568 181.063 25.572 180.583 24.996C180.103 24.396 179.239 24.096 177.991 24.096C176.167 24.096 174.535 25.128 173.095 27.192V39H169.531V21.72ZM202.874 18.336C202.274 18.336 201.77 18.132 201.362 17.724C200.954 17.316 200.75 16.812 200.75 16.212C200.75 15.612 200.954 15.108 201.362 14.7C201.77 14.292 202.274 14.088 202.874 14.088C203.498 14.088 204.014 14.292 204.422 14.7C204.854 15.108 205.07 15.612 205.07 16.212C205.07 16.812 204.854 17.316 204.422 17.724C204.014 18.132 203.498 18.336 202.874 18.336ZM201.038 21.72H204.746V39H201.038V21.72ZM209.75 21.72H213.278V24.204C214.094 23.172 215.09 22.416 216.266 21.936C217.466 21.432 218.714 21.18 220.01 21.18C222.314 21.18 224.03 21.792 225.158 23.016C226.286 24.24 226.85 25.884 226.85 27.948V39H223.214V28.308C223.214 25.5 221.87 24.096 219.182 24.096C218.03 24.096 216.95 24.372 215.942 24.924C214.958 25.452 214.106 26.268 213.386 27.372V39H209.75V21.72ZM239.688 39.54C237.96 39.54 236.4 39.168 235.008 38.424C233.64 37.656 232.56 36.588 231.768 35.22C231 33.828 230.616 32.22 230.616 30.396C230.616 28.596 231 27 231.768 25.608C232.56 24.216 233.64 23.136 235.008 22.368C236.4 21.576 237.96 21.18 239.688 21.18C242.808 21.18 245.172 22.128 246.78 24.024V12.396H250.416V39H246.888V36.48C245.928 37.536 244.872 38.316 243.72 38.82C242.592 39.3 241.248 39.54 239.688 39.54ZM240.516 36.66C242.004 36.66 243.3 36.276 244.404 35.508C245.532 34.716 246.324 33.66 246.78 32.34V28.452C246.372 27.132 245.592 26.076 244.44 25.284C243.312 24.492 242.004 24.096 240.516 24.096C239.34 24.096 238.272 24.36 237.312 24.888C236.376 25.416 235.632 26.16 235.08 27.12C234.552 28.08 234.288 29.172 234.288 30.396C234.288 31.62 234.552 32.712 235.08 33.672C235.632 34.632 236.376 35.376 237.312 35.904C238.272 36.408 239.34 36.66 240.516 36.66ZM264.606 39.54C261.414 39.54 258.906 38.748 257.082 37.164C255.282 35.556 254.382 33.3 254.382 30.396C254.382 27.564 255.186 25.32 256.794 23.664C258.426 22.008 260.742 21.18 263.742 21.18C265.734 21.18 267.426 21.564 268.818 22.332C270.21 23.076 271.254 24.12 271.95 25.464C272.67 26.784 273.03 28.296 273.03 30V31.8H257.838C257.958 33.432 258.642 34.656 259.89 35.472C261.162 36.264 262.878 36.66 265.038 36.66C266.142 36.66 267.258 36.564 268.386 36.372C269.514 36.156 270.51 35.88 271.374 35.544V38.46C270.606 38.772 269.586 39.024 268.314 39.216C267.066 39.432 265.83 39.54 264.606 39.54ZM269.61 29.244C269.562 27.612 269.022 26.352 267.99 25.464C266.982 24.552 265.542 24.096 263.67 24.096C261.846 24.096 260.43 24.564 259.422 25.5C258.414 26.436 257.886 27.684 257.838 29.244H269.61ZM277.004 21.72H280.532V24.816C281.252 23.76 282.26 22.98 283.556 22.476C284.876 21.972 286.4 21.72 288.128 21.72V24.564C286.28 24.564 284.696 24.864 283.376 25.464C282.056 26.064 281.144 27.012 280.64 28.308V39H277.004V21.72Z" fill="#00ACAC"/>
<circle cx="20.5" cy="26.5" r="20.5" fill="#00ACAC"/>
<rect x="5.68301" y="18.1418" width="16.9176" height="29.5653" rx="8.45878" transform="rotate(-30 5.68301 18.1418)" stroke="white"/>
<path d="M26 34C31.5228 34 36 29.5228 36 24C36 18.4772 31.5228 14 26 14C20.4772 14 16 18.4772 16 24C16 29.5228 20.4772 34 26 34Z" stroke="#1E4545" stroke-width="2" stroke-linecap="round" stroke-linejoin="round"/>
<path d="M26 18V24L30 26" stroke="#1E4545" stroke-width="2" stroke-linecap="round" stroke-linejoin="round"/>
</svg>
